<?xml version="1.0" encoding="UTF-8"?>
<!-- Created with Inkscape (http://www.inkscape.org/) -->
<svg id="svg3869" width="22" xmlns:dc="http://purl.org/dc/elements/1.1/" xmlns="http://www.w3.org/2000/svg" viewBox="0 0 22 22" height="22" version="1.1" xmlns:cc="http://creativecommons.org/ns#" xmlns:rdf="http://www.w3.org/1999/02/22-rdf-syntax-ns#">
 <metadata id="metadata3874">
  <rdf:RDF>
   <cc:Work rdf:about="">
    <dc:format>image/svg+xml</dc:format>
    <dc:type rdf:resource="http://purl.org/dc/dcmitype/StillImage"/>
    <dc:title/>
   </cc:Work>
  </rdf:RDF>
 </metadata>
 <g id="layer1" transform="translate(-326 -534.36)">
  <g id="quota" fill="#ffffff">
   <path id="rect4127" d="m328.99 537.36v16h10v-1h-9v-8h3v-0.01l0.008 0.01 2-2h8.9922v3h1v-6h-6.99l-2-2-0.008 0.01v-0.01h-6z"/>
   <path id="path4203" d="m17 12a3 1 0 0 0 -3 1v5a3 1 0 0 0 3 1 3 1 0 0 0 3 -1v-5a3 1 0 0 0 -3 -1zm0 1a3 1 0 0 1 2 0.258v0.486a3 1 0 0 1 -2 0.256 3 1 0 0 1 -2 -0.258v-0.486a3 1 0 0 1 2 -0.256zm-2 1.744a3 1 0 0 0 2 0.256 3 1 0 0 0 2 -0.256v1a3 1 0 0 1 -2 0.256 3 1 0 0 1 -2 -0.258v-0.998zm0 2a3 1 0 0 0 2 0.256 3 1 0 0 0 2 -0.256v1a3 1 0 0 1 -2 0.256 3 1 0 0 1 -2 -0.258v-0.998z" transform="translate(326 534.36)"/>
  </g>
  <g id="quota-missing" transform="translate(30.008 -.010017)">
   <path id="rect4127-2" fill="#ffffff" d="m328.99 537.36v16h10v-1h-9v-8h3v-0.01l0.008 0.01 2-2h8.9922v3h1v-6h-6.99l-2-2-0.008 0.01v-0.01h-6z"/>
   <path id="path4203-8" fill="#ffffff" d="m17 12a3 1 0 0 0 -3 1v5a3 1 0 0 0 3 1 3 1 0 0 0 3 -1v-5a3 1 0 0 0 -3 -1zm0 1a3 1 0 0 1 2 0.25781v0.48633a3 1 0 0 1 -2 0.256 3 1 0 0 1 -2 -0.258v-0.48633a3 1 0 0 1 2 -0.256zm-2 1.7441a3 1 0 0 0 2 0.256 3 1 0 0 0 2 -0.256v1a3 1 0 0 1 -2 0.256 3 1 0 0 1 -2 -0.258v-0.99805zm0 2a3 1 0 0 0 2 0.256 3 1 0 0 0 2 -0.256v1a3 1 0 0 1 -2 0.256 3 1 0 0 1 -2 -0.258v-0.99805z" transform="translate(326 534.36)"/>
   <path id="path4247" fill="#f47750" d="m11 9c-0.55228 0-1 0.44772-1 1s0.44772 4 1 4 1-3.4477 1-4c0-0.55228-0.44772-1-1-1zm0 6a1 1 0 0 0 -1 1 1 1 0 0 0 1 1 1 1 0 0 0 1 -1 1 1 0 0 0 -1 -1z" transform="translate(326 534.36)"/>
  </g>
  <g id="quota-low" transform="translate(56.008,-1.7e-5)">
   <path id="rect4127-6" fill="#ffffff" d="m328.99 537.36v16h10v-1h-9v-8h3v-0.01l0.008 0.01 2-2h8.9922v3h1v-6h-6.99l-2-2-0.008 0.01v-0.01h-6z"/>
   <path id="path4203-0" fill="#59dce5" d="m17 12c-1.6569 0-3 0.44772-3 1v5c0 0.55228 1.3431 1 3 1s3-0.44772 3-1v-5c0-0.55228-1.3431-1-3-1zm0 1c0.73919 0.00087 1.4514 0.09268 2 0.25781v0.48633c-0.549 0.165-1.262 0.256-2 0.256-0.739-0.001-1.451-0.093-2-0.258v-0.486c0.549-0.165 1.262-0.256 2-0.256zm-2 1.7441c0.54948 0.16443 1.2616 0.25552 2 0.25586 0.73841-0.000334 1.4505-0.09143 2-0.25586v1c-0.549 0.165-1.262 0.256-2 0.256-0.739-0.001-1.451-0.093-2-0.258z" transform="translate(326 534.36)"/>
  </g>
  <g id="quota-high" transform="translate(81.008,-1.7e-5)">
   <path id="rect4127-1" fill="#ffffff" d="m328.99 537.36v16h10v-1h-9v-8h3v-0.01l0.008 0.01 2-2h8.9922v3h1v-6h-6.99l-2-2-0.008 0.01v-0.01h-6z"/>
   <path id="path4203-2" fill="#e74c3c" d="m17 12c-1.6569 0-3 0.44772-3 1v5c0 0.55228 1.3431 1 3 1s3-0.44772 3-1v-5c0-0.55228-1.3431-1-3-1zm0 1c0.73919 0.00087 1.4514 0.09268 2 0.25781v0.48633c-0.549 0.165-1.262 0.256-2 0.256-0.739-0.001-1.451-0.093-2-0.258v-0.486c0.549-0.165 1.262-0.256 2-0.256z" transform="translate(326 534.36)"/>
  </g>
  <g id="quota-critical" transform="translate(106.008,-1.7e-5)">
   <path id="rect4127-65" fill="#ffffff" d="m328.99 537.36v16h10v-1h-9v-8h3v-0.01l0.008 0.01 2-2h8.9922v3h1v-6h-6.99l-2-2-0.008 0.01v-0.01h-6z"/>
   <path id="path4203-5" fill="#e74c3c" d="m17 12c-1.6569 0-3 0.44772-3 1v5c0 0.55228 1.3431 1 3 1s3-0.44772 3-1v-5c0-0.55228-1.3431-1-3-1zm0 1c0.73919 0.00087 1.4514 0.09268 2 0.25781v0.48633c-0.549 0.165-1.262 0.256-2 0.256-0.739-0.001-1.451-0.093-2-0.258v-0.486c0.549-0.165 1.262-0.256 2-0.256z" transform="translate(326 534.36)"/>
   <path id="path4247-9" fill="#e74c3c" d="m337 543.36c-0.55228 0-1 0.44772-1 1s0.44772 4 1 4 1-3.4477 1-4c0-0.55228-0.44772-1-1-1zm0 6a1 1 0 0 0 -1 1 1 1 0 0 0 1 1 1 1 0 0 0 1 -1 1 1 0 0 0 -1 -1z"/>
  </g>
 </g>
</svg>
