<?xml version="1.0" encoding="UTF-8" standalone="no"?>
<!-- Created with Inkscape (http://www.inkscape.org/) -->

<svg
   xmlns:dc="http://purl.org/dc/elements/1.1/"
   xmlns:cc="http://creativecommons.org/ns#"
   xmlns:rdf="http://www.w3.org/1999/02/22-rdf-syntax-ns#"
   xmlns:svg="http://www.w3.org/2000/svg"
   xmlns="http://www.w3.org/2000/svg"
   xmlns:sodipodi="http://sodipodi.sourceforge.net/DTD/sodipodi-0.dtd"
   xmlns:inkscape="http://www.inkscape.org/namespaces/inkscape"
   id="svg3869"
   height="22"
   width="22"
   version="1.1"
   viewBox="0 0 22 22"
   inkscape:version="0.91+devel r"
   sodipodi:docname="window.svg">
  <sodipodi:namedview
     pagecolor="#ffffff"
     bordercolor="#666666"
     borderopacity="1"
     objecttolerance="10"
     gridtolerance="10"
     guidetolerance="10"
     inkscape:pageopacity="0"
     inkscape:pageshadow="2"
     inkscape:window-width="640"
     inkscape:window-height="480"
     id="namedview25"
     showgrid="false"
     inkscape:pagecheckerboard="true"
     inkscape:zoom="41.727273"
     inkscape:cx="6.8300654"
     inkscape:cy="9.0827887"
     inkscape:current-layer="svg3869" />
  <defs
     id="defs3871">
    <style
       id="current-color-scheme"
       type="text/css">.ColorScheme-Text {
        color:#31363b;
      }
      .ColorScheme-Background {
        color:#eff0f1;
      }
      .ColorScheme-Highlight {
        color:#3daee9;
      }
      .ColorScheme-ViewText {
        color:#31363b;
      }
      .ColorScheme-ViewBackground {
        color:#fcfcfc;
      }
      .ColorScheme-ViewHover {
        color:#93cee9;
      }
      .ColorScheme-ViewFocus{
        color:#3daee9;
      }
      .ColorScheme-ButtonText {
        color:#31363b;
      }
      .ColorScheme-ButtonBackground {
        color:#eff0f1;
      }
      .ColorScheme-ButtonHover {
        color:#93cee9;
      }
      .ColorScheme-ButtonFocus{
        color:#3daee9;
      }</style>
    <style
       id="current-color-scheme-8"
       type="text/css">.ColorScheme-Text {
        color:#7B7C7E;
      }
      .ColorScheme-Background{
        color:#EFF0F1;
      }
      .ColorScheme-Highlight{
        color:#3DAEE6;
      }
      .ColorScheme-ViewText {
        color:#7B7C7E;
      }
      .ColorScheme-ViewBackground{
        color:#FCFCFC;
      }
      .ColorScheme-ViewHover {
        color:#3DAEE6;
      }
      .ColorScheme-ViewFocus{
        color:#1E92FF;
      }
      .ColorScheme-ButtonText {
        color:#7B7C7E;
      }
      .ColorScheme-ButtonBackground{
        color:#EFF0F1;
      }
      .ColorScheme-ButtonHover {
        color:#3DAEE6;
      }
      .ColorScheme-ButtonFocus{
        color:#1E92FF;
      }</style>
  </defs>
  <metadata
     id="metadata3874">
    <rdf:RDF>
      <cc:Work
         rdf:about="">
        <dc:format>image/svg+xml</dc:format>
        <dc:type
           rdf:resource="http://purl.org/dc/dcmitype/StillImage" />
        <dc:title></dc:title>
      </cc:Work>
    </rdf:RDF>
  </metadata>
  <g
     id="layer1"
     transform="translate(-326 -534.36)">
    <g
       id="edit-delete">
      <rect
         id="rect4169"
         height="22"
         fill="none"
         width="22"
         x="326"
         y="534.36" />
      <circle
         id="path4145"
         class="ColorScheme-Background"
         cy="545.36"
         r="6"
         cx="337"
         fill="currentColor"
         style="fill:#3f4348;fill-opacity:1" />
      <circle
         id="circle16"
         cx="277.56"
         cy="-509.56"
         r="0" />
      <path
         id="path4144"
         fill="#ffffff"
         d="m337 537.36a8 8 0 0 0 -8 8 8 8 0 0 0 8 8 8 8 0 0 0 8 -8 8 8 0 0 0 -8 -8zm-3.293 4l3.29 3.3 3.29-3.3 0.71 0.71-3.29 3.29 3.29 3.3-0.71 0.7-3.29-3.29-3.29 3.29-0.71-0.7 3.29-3.3-3.29-3.29 0.70703-0.70703z" />
    </g>
    <g
       id="window-pin"
       transform="translate(361.02 500.52)">
      <rect
         id="rect3022"
         height="8"
         fill-opacity="0"
         width="8"
         x="-46"
         y="44" />
      <path
         id="rect3845"
         class="ColorScheme-Text"
         fill="#ffffff"
         d="m-41 44c-0.38925 0.38925-0.46835 1.0843-0.01563 1.8438l-2.125 1.4219c-0.2642-0.1066-0.5478-0.18609-0.82812-0.1875-0.364-0.002-0.719 0.11-1.031 0.422l1.5 1.5-2 2-0.5 1 1-0.5 2-2 1.5 1.5c0.55348-0.55348 0.48237-1.2539 0.23438-1.8594l1.4219-2.125c0.76 0.452 1.455 0.373 1.844-0.016z" />
    </g>
    <g
       id="window-unpin"
       transform="translate(361.02 500.52)">
      <path
         id="path3024"
         class="ColorScheme-Highlight"
         fill="#58dde6"
         d="m-61 44c-0.38925 0.38925-0.46835 1.0843-0.01563 1.8438l-2.125 1.4219c-0.2642-0.1066-0.5478-0.18609-0.82812-0.1875-0.364-0.002-0.719 0.11-1.031 0.422l1.5 1.5-2 2-0.5 1 1-0.5 2-2 1.5 1.5c0.55348-0.55348 0.48237-1.2539 0.23438-1.8594l1.4219-2.125c0.76 0.452 1.455 0.373 1.844-0.016z" />
      <rect
         id="rect3030"
         height="8"
         fill-opacity="0"
         width="8"
         x="-66"
         y="44" />
    </g>
    <g
       id="window-list"
       transform="translate(-13,-4)">
      <rect
         id="rect3004"
         height="32"
         ry="0"
         opacity="0"
         width="32"
         x="286"
         y="561.36" />
      <path
         id="rect3008"
         class="ColorScheme-Text"
         fill="#ffffff"
         transform="translate(326 534.36)"
         d="m-36 31v10h10v-10h-10zm1 1h8v8h-8v-8z" />
      <path
         id="rect3010"
         class="ColorScheme-Text"
         fill="#ffffff"
         transform="translate(326 534.36)"
         d="m-22 31v10h10v-10h-10zm1 1h8v8h-8v-8z" />
      <path
         id="rect3012"
         class="ColorScheme-Text"
         fill="#ffffff"
         transform="translate(326 534.36)"
         d="m-36 45v10h10v-10h-10zm1 1h8v8h-8v-8z" />
      <path
         id="rect3014"
         class="ColorScheme-Text"
         fill="#ffffff"
         transform="translate(326 534.36)"
         d="m-22 45v10h10v-10h-10zm1 1h8v8h-8v-8z" />
    </g>
  </g>
</svg>
