<?xml version="1.0" encoding="UTF-8"?>
<!-- Created with Inkscape (http://www.inkscape.org/) -->
<svg id="svg2" width="30" xmlns="http://www.w3.org/2000/svg" xmlns:xlink="http://www.w3.org/1999/xlink" xmlns:dc="http://purl.org/dc/elements/1.1/" version="1.0" height="122.38" xmlns:rdf="http://www.w3.org/1999/02/22-rdf-syntax-ns#" xmlns:cc="http://creativecommons.org/ns#">
 <metadata id="metadata7">
  <rdf:RDF>
   <cc:Work rdf:about="">
    <dc:format>image/svg+xml</dc:format>
    <dc:type rdf:resource="http://purl.org/dc/dcmitype/StillImage"/>
    <dc:title/>
   </cc:Work>
  </rdf:RDF>
 </metadata>
 <g id="layer1" transform="translate(-17 -33.625)">
  <g id="normal" transform="translate(-56.75,-3e-6)">
   <g id="g4286">
    <rect id="rect4284" fill-opacity="0" width="30" x="73.75" y="65.625" height="30"/>
   </g>
   <g id="g4278">
    <path id="path4263" fill-opacity=".21961" d="m0.025391 12.5c-0.006911 0.167-0.025391 0.331-0.025391 0.5 0 6.624 5.376 12 12 12s12-5.376 12-12c0-0.169-0.018-0.333-0.025-0.5-0.265 6.391-5.52 11.5-11.975 11.5-6.4552 0-11.71-5.109-11.975-11.5z" transform="translate(76.75 68.625)"/>
    <path id="path4246" fill="#f4f4f4" d="m88.75 69.625c-5.796 0-11 5.204-11 11s5.204 11 11 11 11-5.204 11-11-5.204-11-11-11zm-7.625 1.75c-0.59266 0.48911-1.1359 1.0323-1.625 1.625 0.48923-0.59273 1.0323-1.1358 1.625-1.625zm15.25 0c0.59273 0.48923 1.1358 1.0323 1.625 1.625-0.48911-0.59266-1.0323-1.1359-1.625-1.625zm-16.875 16.875c0.48911 0.59266 1.0323 1.1359 1.625 1.625-0.59273-0.48923-1.1358-1.0323-1.625-1.625zm18.5 0c-0.48923 0.59273-1.0323 1.1358-1.625 1.625 0.59266-0.48911 1.1359-1.0323 1.625-1.625z"/>
    <path id="path4261" d="m88.75 68.625c-6.624 0-12 5.376-12 12s5.376 12 12 12 12-5.376 12-12-5.376-12-12-12zm0 1c5.796 0 11 5.204 11 11s-5.204 11-11 11-11-5.204-11-11c-0.000002-5.796 5.204-11 11-11z" fill="#a4a4a4"/>
    <path id="path4266" fill-opacity=".058824" d="m76.775 82.125c-0.0069 0.16707-0.02539 0.33124-0.02539 0.5 0 6.624 5.376 12 12 12s12-5.376 12-12c0-0.16876-0.0185-0.33293-0.0254-0.5-0.26434 6.3907-5.5194 11.5-11.975 11.5-6.4552 0-11.71-5.1093-11.975-11.5z"/>
   </g>
  </g>
  <g id="pressed" transform="translate(-56.75 -32)">
   <rect id="rect4321" fill-opacity="0" height="30" x="73.75" y="65.625" width="30"/>
   <g id="g4315">
    <path id="path4305" fill="#f4f4f4" d="m88.75 69.625c-5.796 0-11 5.204-11 11s5.204 11 11 11 11-5.204 11-11-5.204-11-11-11zm-7.625 1.75c-0.59266 0.48911-1.1359 1.0323-1.625 1.625 0.48923-0.59273 1.0323-1.1358 1.625-1.625zm15.25 0c0.59273 0.48923 1.1358 1.0323 1.625 1.625-0.48911-0.59266-1.0323-1.1359-1.625-1.625zm-16.875 16.875c0.48911 0.59266 1.0323 1.1359 1.625 1.625-0.59273-0.48923-1.1358-1.0323-1.625-1.625zm18.5 0c-0.48923 0.59273-1.0323 1.1358-1.625 1.625 0.59266-0.48911 1.1359-1.0323 1.625-1.625z"/>
    <path id="path4298" d="m12 1c-5.796 0-11 5.204-11 11 0 0.168 0.0187 0.333 0.0273 0.5 0.2892-5.5909 5.3447-10.5 10.973-10.5 5.628 0 10.684 4.9091 10.973 10.5 0.008-0.167 0.027-0.332 0.027-0.5 0-5.796-5.204-11-11-11z" fill="#b8b8b8" transform="translate(76.75 68.625)"/>
    <path id="path4311" d="m88.75 68.625c-6.624 0-12 5.376-12 12s5.376 12 12 12 12-5.376 12-12-5.376-12-12-12zm0 1c5.796 0 11 5.204 11 11s-5.204 11-11 11-11-5.204-11-11c-0.000002-5.796 5.204-11 11-11z" fill="#a4a4a4"/>
    <path id="path4313" fill="#e8e8e8" d="m88.75 70.625c-5.796 0-11 5.204-11 11 0 0.16799 0.01871 0.33312 0.02734 0.5 0.28915-5.5909 5.3446-10.5 10.973-10.5 5.628 0 10.684 4.9091 10.973 10.5 0.0086-0.16688 0.02734-0.33201 0.02734-0.5 0-5.796-5.204-11-11-11z"/>
   </g>
  </g>
  <g id="22-22-normal" transform="translate(0,18)">
   <circle id="circle4339" fill="#f4f4f4" cx="32" r="8" cy="95"/>
   <rect id="rect4341" fill-opacity="0" height="22" x="21" y="84" width="22"/>
   <path id="path4355" fill-opacity=".39216" d="m10.256 19.963a9 9 0 0 0 0.10742 0.01367 9 9 0 0 0 0.637 0.023 8 8 0 0 1 -0.744 -0.037z" transform="translate(21,84)"/>
   <path id="path4353" fill-opacity=".21961" d="m2.0215 11.424a9 9 0 0 0 -0.0215 0.576 9 9 0 0 0 9 9 9 9 0 0 0 9 -9 9 9 0 0 0 -0.02148 -0.42383 9 9 0 0 1 -0.002 0.06055 9 9 0 0 1 -0.10742 0.89258 9 9 0 0 1 -0.19727 0.87891 9 9 0 0 1 -0.2832 0.85352 9 9 0 0 1 -0.36719 0.82031 9 9 0 0 1 -0.44922 0.78125 9 9 0 0 1 -0.52148 0.73047 9 9 0 0 1 -0.59375 0.67578 9 9 0 0 1 -0.6582 0.61328 9 9 0 0 1 -0.7168 0.54492 9 9 0 0 1 -0.76758 0.4707 9 9 0 0 1 -0.81055 0.39062 9 9 0 0 1 -0.84375 0.30859 9 9 0 0 1 -0.87305 0.22266 9 9 0 0 1 -0.88867 0.13477 9 9 0 0 1 -0.21094 0.0098 8 8 0 0 1 -0.688 0.035 9 9 0 0 1 -0.637 -0.023 9 9 0 0 1 -0.107 -0.014 8 8 0 0 1 -0.174 -0.02 9 9 0 0 1 -0.6113 -0.074 9 9 0 0 1 -0.8789 -0.197 9 9 0 0 1 -0.8535 -0.283 9 9 0 0 1 -0.8203 -0.368 9 9 0 0 1 -0.7813 -0.449 9 9 0 0 1 -0.7305 -0.521 9 9 0 0 1 -0.6757 -0.594 9 9 0 0 1 -0.6133 -0.658 9 9 0 0 1 -0.5449 -0.717 9 9 0 0 1 -0.4707 -0.768 9 9 0 0 1 -0.3907 -0.81 9 9 0 0 1 -0.3086 -0.844 9 9 0 0 1 -0.2226 -0.873 9 9 0 0 1 -0.1348 -0.889 9 9 0 0 1 -0.0234 -0.474z" transform="translate(21,84)"/>
   <path id="path4350" d="m32 86a9 9 0 0 0 -9 9 9 9 0 0 0 9 9 9 9 0 0 0 9 -9 9 9 0 0 0 -9 -9zm0 1a8 8 0 0 1 8 8 8 8 0 0 1 -8 8 8 8 0 0 1 -8 -8 8 8 0 0 1 8 -8z" fill="#a4a4a4"/>
   <path id="path4361" fill-opacity=".058824" d="m23.021 96.424a9 9 0 0 0 -0.021 0.576 9 9 0 0 0 9 9 9 9 0 0 0 9 -9 9 9 0 0 0 -0.02148 -0.42383 9 9 0 0 1 -0.002 0.06055 9 9 0 0 1 -0.10742 0.89258 9 9 0 0 1 -0.19727 0.87891 9 9 0 0 1 -0.2832 0.85352 9 9 0 0 1 -0.36719 0.82031 9 9 0 0 1 -0.44922 0.78125 9 9 0 0 1 -0.52148 0.73047 9 9 0 0 1 -0.59375 0.67578 9 9 0 0 1 -0.6582 0.61328 9 9 0 0 1 -0.7168 0.54492 9 9 0 0 1 -0.76758 0.47071 9 9 0 0 1 -0.81055 0.39062 9 9 0 0 1 -0.84375 0.3086 9 9 0 0 1 -0.87305 0.22265 9 9 0 0 1 -0.88867 0.13477 9 9 0 0 1 -0.21094 0.01 8 8 0 0 1 -0.688 0.04 9 9 0 0 1 -0.63672 -0.0234 9 9 0 0 1 -0.10742 -0.0137 8 8 0 0 1 -0.17383 -0.0195 9 9 0 0 1 -0.61133 -0.0742 9 9 0 0 1 -0.87891 -0.19726 9 9 0 0 1 -0.85352 -0.28321 9 9 0 0 1 -0.82031 -0.36719 9 9 0 0 1 -0.78125 -0.44921 9 9 0 0 1 -0.73047 -0.52149 9 9 0 0 1 -0.67578 -0.59375 9 9 0 0 1 -0.61328 -0.6582 9 9 0 0 1 -0.54492 -0.7168 9 9 0 0 1 -0.4707 -0.76758 9 9 0 0 1 -0.39062 -0.81054 9 9 0 0 1 -0.30859 -0.84375 9 9 0 0 1 -0.22266 -0.87305 9 9 0 0 1 -0.13476 -0.88867 9 9 0 0 1 -0.02344 -0.47461z"/>
  </g>
  <g id="22-22-pressed" transform="translate(0,50)">
   <circle id="circle4244" fill="#f4f4f4" cx="32" r="8" cy="95"/>
   <rect id="rect4223" fill-opacity="0" height="22" x="21" y="84" width="22"/>
   <path id="path4391" d="m18.979 11.424a8 8 0 0 0 0.021 -0.424 8 8 0 0 0 -0.02 -0.566 8 8 0 0 0 -0.097 -0.7934 8 8 0 0 0 -0.174 -0.7812 8 8 0 0 0 -0.252 -0.7578 8 8 0 0 0 -0.328 -0.7305 8 8 0 0 0 -0.397 -0.6934 8 8 0 0 0 -0.464 -0.6504 8 8 0 0 0 -0.53 -0.6015 8 8 0 0 0 -0.584 -0.5449 8 8 0 0 0 -0.636 -0.4844 8 8 0 0 0 -0.682 -0.418 8 8 0 0 0 -0.721 -0.3476 8 8 0 0 0 -0.752 -0.2735 8 8 0 0 0 -0.773 -0.1972 8 8 0 0 0 -0.672 -0.1036 9 9 0 0 0 -0.174 -0.0195 8 8 0 0 0 -0.744 -0.0371 9 9 0 0 0 -0.688 0.0352 8 8 0 0 0 -0.6714 0.082 8 8 0 0 0 -0.7812 0.1738 8 8 0 0 0 -0.7578 0.252 8 8 0 0 0 -0.7305 0.3281 8 8 0 0 0 -0.6934 0.3965 8 8 0 0 0 -0.6504 0.4648 8 8 0 0 0 -0.6015 0.5293 8 8 0 0 0 -0.5449 0.584 8 8 0 0 0 -0.4844 0.6367 8 8 0 0 0 -0.418 0.6817 8 8 0 0 0 -0.3476 0.7207 8 8 0 0 0 -0.2735 0.7519 8 8 0 0 0 -0.1972 0.7735 8 8 0 0 0 -0.1211 0.7908 8 8 0 0 0 -0.0391 0.799 8 8 0 0 0 0.019531 0.56641 8 8 0 0 0 0.00195 0.0098 8 8 0 0 1 7.9785 -7.576 8 8 0 0 1 7.9785 7.4238z" fill="#b8b8b8" transform="translate(21,84)"/>
   <path id="path4387" d="m10.256 19.963a9 9 0 0 0 0.10742 0.01367 9 9 0 0 0 0.637 0.023 8 8 0 0 1 -0.744 -0.037z" fill="#a4a4a4" transform="translate(21,84)"/>
   <path id="path4379" d="m32 86a9 9 0 0 0 -9 9 9 9 0 0 0 9 9 9 9 0 0 0 9 -9 9 9 0 0 0 -9 -9zm0 1a8 8 0 0 1 8 8 8 8 0 0 1 -8 8 8 8 0 0 1 -8 -8 8 8 0 0 1 8 -8z" fill="#a4a4a4"/>
   <path id="path4393" d="m39.979 96.424a8 8 0 0 0 0.021 -0.424 8 8 0 0 0 -0.02 -0.567 8 8 0 0 0 -0.097 -0.793 8 8 0 0 0 -0.174 -0.781 8 8 0 0 0 -0.252 -0.758 8 8 0 0 0 -0.328 -0.73 8 8 0 0 0 -0.397 -0.693 8 8 0 0 0 -0.464 -0.651 8 8 0 0 0 -0.53 -0.601 8 8 0 0 0 -0.584 -0.545 8 8 0 0 0 -0.636 -0.485 8 8 0 0 0 -0.682 -0.418 8 8 0 0 0 -0.721 -0.347 8 8 0 0 0 -0.752 -0.274 8 8 0 0 0 -0.773 -0.197 8 8 0 0 0 -0.672 -0.104 9 9 0 0 0 -0.174 -0.019 8 8 0 0 0 -0.744 -0.037 9 9 0 0 0 -0.6875 0.03516 8 8 0 0 0 -0.67188 0.08203 8 8 0 0 0 -0.78125 0.17383 8 8 0 0 0 -0.75781 0.25195 8 8 0 0 0 -0.73047 0.32812 8 8 0 0 0 -0.69336 0.39648 8 8 0 0 0 -0.65039 0.46484 8 8 0 0 0 -0.60156 0.5293 8 8 0 0 0 -0.54492 0.58398 8 8 0 0 0 -0.48438 0.63672 8 8 0 0 0 -0.41797 0.68164 8 8 0 0 0 -0.34766 0.7207 8 8 0 0 0 -0.27344 0.75195 8 8 0 0 0 -0.19727 0.77344 8 8 0 0 0 -0.121 0.791 8 8 0 0 0 -0.039 0.799 8 8 0 0 0 0.01953 0.56641 8 8 0 0 0 0.002 0.0098 8 8 0 0 1 7.978 -7.576 8 8 0 0 1 7.9785 7.4238z" fill="#e8e8e8"/>
  </g>
 </g>
</svg>
