<?xml version="1.0" encoding="UTF-8"?>
<!-- Created with Inkscape (http://www.inkscape.org/) -->
<svg id="svg2" xmlns:cc="http://creativecommons.org/ns#" height="130" xmlns:xlink="http://www.w3.org/1999/xlink" viewBox="0 0 130 130" xmlns="http://www.w3.org/2000/svg" version="1.0" xmlns:rdf="http://www.w3.org/1999/02/22-rdf-syntax-ns#" width="130" xmlns:dc="http://purl.org/dc/elements/1.1/">
 <metadata id="metadata7">
  <rdf:RDF>
   <cc:Work rdf:about="">
    <dc:format>image/svg+xml</dc:format>
    <dc:type rdf:resource="http://purl.org/dc/dcmitype/StillImage"/>
    <dc:title/>
   </cc:Work>
  </rdf:RDF>
 </metadata>
 <g id="layer1" transform="translate(-161.16 -126)">
  <rect id="hint-rotation-angle" x="13.062" height="15" width="15" fill="#00f" y="113.51"/>
  <rect id="rect3925-6" x="146.16" fill-opacity=".0039216" height="130" width="130" fill="#fff" fill-rule="evenodd" y="-139"/>
  <rect id="rect4626" x="116.16" fill-opacity="0" height="130" width="130" opacity=".05" y="146"/>
 </g>
 <g id="g4394" transform="translate(-170,13)">
  <path id="circle4546" fill="#f1f1f1" d="m65 15a50 50 0 0 0 -50 50 50 50 0 0 0 50 50 50 50 0 0 0 50 -50 50 50 0 0 0 -50 -50zm0 10a40 40 0 0 1 40 40 40 40 0 0 1 -40 40 40 40 0 0 1 -40 -40 40 40 0 0 1 40 -40z"/>
  <path id="path4624" d="m46.156-9v10c22.091 0 40 17.909 40 40 0 10.87-4.37 20.697-11.406 27.906-0.22787 0.23348-0.45402 0.45963-0.6875 0.6875l7.0625 7.0625c0.23259-0.22811 0.45939-0.45491 0.6875-0.6875 8.846-9.019 14.344-21.337 14.344-34.968 0-27.614-22.386-50-50-50z" transform="translate(18.844 24)" fill="#12bcfa" fill-rule="evenodd"/>
  <path id="path4525" fill="#3b3c3e" d="m65 13a52 52 0 0 0 -52 52 52 52 0 0 0 52 52 52 52 0 0 0 52 -52 52 52 0 0 0 -52 -52zm0 2a50 50 0 0 1 50 50 50 50 0 0 1 -50 50 50 50 0 0 1 -50 -50 50 50 0 0 1 50 -50z"/>
  <path id="circle4538" fill="#3b3c3e" d="m65 25a40 40 0 0 0 -40 40 40 40 0 0 0 40 40 40 40 0 0 0 40 -40 40 40 0 0 0 -40 -40zm0 2a38 38 0 0 1 38 38 38 38 0 0 1 -38 38 38 38 0 0 1 -38 -38 38 38 0 0 1 38 -38z"/>
  <rect id="rect4591" x="0" fill-opacity="0" height="130" width="130" y="0"/>
 </g>
 <g id="g4435" transform="translate(-315,145)">
  <g id="g4569" transform="translate(-136,124)">
   <g id="g4555" transform="translate(-350.09 -931.36)">
    <g id="g4557" transform="translate(0,3)" fill-rule="evenodd">
     <path id="path4559" fill-opacity=".39216" d="m551.09 819.36v10c22.091 0 40 17.909 40 40h10c0-27.614-22.386-50-50-50z" fill="#fffeff"/>
     <path id="path4561" d="m551.09 819.36v10c22.091 0 40 17.909 40 40h10c0-27.614-22.386-50-50-50z" fill="#12bcfa"/>
    </g>
   </g>
   <path id="path4551" fill="#f63d32" d="m201-109a50 50 0 0 0 -50 50 50 50 0 0 0 50 50 50 50 0 0 0 50 -50 50 50 0 0 0 -50 -50zm0 10a40 40 0 0 1 40 40 40 40 0 0 1 -40 40 40 40 0 0 1 -40 -40 40 40 0 0 1 40 -40z"/>
   <path id="path4553" fill="#3b3c3e" d="m201-111a52 52 0 0 0 -52 52 52 52 0 0 0 52 52 52 52 0 0 0 52 -52 52 52 0 0 0 -52 -52zm0 2a50 50 0 0 1 50 50 50 50 0 0 1 -50 50 50 50 0 0 1 -50 -50 50 50 0 0 1 50 -50z"/>
   <path id="path4563" fill="#3b3c3e" d="m201-99a40 40 0 0 0 -40 40 40 40 0 0 0 40 40 40 40 0 0 0 40 -40 40 40 0 0 0 -40 -40zm0 2a38 38 0 0 1 38 38 38 38 0 0 1 -38 38 38 38 0 0 1 -38 -38 38 38 0 0 1 38 -38z"/>
  </g>
  <rect id="rect4655" x="0" fill-opacity="0" height="130" width="130" y="0"/>
 </g>
 <g id="busywidget" transform="translate(-3.9992 -6.0939)">
  <rect id="rect4386" x="-1.9902" height="128" fill="none" width="128" y="-5.1265"/>
  <g id="g8" transform="matrix(.079592 0 0 .079592 9.2139 28.078)">
   <g id="g6">
    <path id="path4" fill-opacity=".75598" stroke-width="1.3333" d="m663.33-316.67c-355.73 0-644.93 284.27-653.2 638 7.603-308.66 242.27-556.26 530.67-556.26 293.2 0 530.8 256 530.8 571.73 0 67.6 54.8 122.53 122.53 122.53 67.733 0 122.53-55.067 122.53-122.67 0-360.8-292.53-653.33-653.33-653.33zm0 1306.7c355.73 0 644.93-284.27 653.2-638-7.6 308.67-242.27 556.27-530.67 556.27-293.2 0-530.8-256-530.8-571.73 0-67.6-54.8-122.53-122.53-122.53-67.73-0.04-122.53 55.03-122.53 122.63 0 360.8 292.53 653.33 653.33 653.33z" fill="#fff"/>
   </g>
  </g>
 </g>
 <g id="paused" transform="translate(3.5 8.5)" stroke-width="6.541">
  <circle id="path4426" cx="57.5" stroke-opacity=".99608" fill="none" r="44.579" stroke="#fe1861" stroke-linecap="round" cy="207.5"/>
  <g id="g4424" transform="translate(-4.5098 148.63)">
   <rect id="rect4416" x="-1.9902" height="128" fill="none" width="128" y="-5.1265"/>
   <g id="g4422" stroke-width="82.182" transform="matrix(.079592 0 0 .079592 9.2139 28.078)"></g>
  </g>
 </g>
</svg>
